<?xml version="1.0" standalone="no"?>
<!DOCTYPE svg PUBLIC "-//W3C//DTD SVG 20010904//EN"
 "http://www.w3.org/TR/2001/REC-SVG-20010904/DTD/svg10.dtd">
<svg version="1.0" xmlns="http://www.w3.org/2000/svg"
 width="48.000000pt" height="48.000000pt" viewBox="0 0 48.000000 48.000000"
 preserveAspectRatio="xMidYMid meet">

<g transform="translate(0.000000,48.000000) scale(0.100000,-0.100000)"
fill="#000000" stroke="none">
<path d="M185 465 c-19 -16 -19 -16 3 -5 18 9 30 6 68 -16 49 -29 49 -29 -16
-63 l-35 -18 -43 27 -43 27 23 17 c13 9 1 5 -27 -10 -57 -30 -87 -55 -37 -30
32 17 33 16 105 -25 39 -23 83 -49 96 -57 l23 -14 -43 -25 c-24 -13 -52 -22
-62 -19 -17 4 -18 3 -3 -13 10 -11 16 -36 16 -64 0 -51 -1 -52 -33 -36 -16 7
-14 4 6 -11 22 -18 27 -29 27 -67 0 -40 -2 -45 -20 -40 -25 7 -26 1 -1 -13 16
-8 39 2 125 51 l106 61 0 58 c0 32 -4 62 -10 65 -5 3 -10 2 -10 -3 0 -7 -29
-24 -82 -50 -5 -2 -8 19 -8 47 0 28 2 51 4 51 3 0 21 -9 40 -21 20 -12 36 -19
36 -16 0 3 -18 16 -40 28 -39 22 -40 23 -40 81 0 57 -1 58 -41 83 -56 36 -62
38 -84 20z"/>
<path d="M366 431 c-11 -12 -16 -30 -13 -48 l4 -28 2 31 c0 16 6 35 13 42 17
17 63 15 77 -2 24 -29 -20 -76 -71 -76 -22 -1 -22 -1 -4 -15 30 -23 62 -18 86
12 36 46 8 103 -50 103 -15 0 -35 -9 -44 -19z"/>
<path d="M17 369 c-15 -9 -17 -26 -17 -129 0 -114 1 -120 23 -130 20 -10 20
-10 4 3 -21 17 -26 123 -4 111 9 -6 9 -4 0 7 -7 7 -13 37 -13 66 0 52 1 53 23
43 20 -10 20 -10 5 3 -13 10 -15 16 -6 25 15 15 9 15 -15 1z"/>
<path d="M164 334 c-18 -14 -18 -15 4 -4 12 6 22 13 22 15 0 8 -5 6 -26 -11z"/>
<path d="M78 314 c18 -14 22 -26 22 -70 l0 -55 -30 16 c-16 9 -30 13 -30 11 0
-3 14 -12 30 -21 27 -14 30 -20 30 -65 0 -54 -1 -55 -33 -39 -43 22 -1 -9 48
-36 28 -15 41 -20 31 -11 -11 9 -23 16 -28 16 -4 0 -8 25 -8 55 0 54 1 55 23
45 l22 -11 -22 17 c-19 13 -23 26 -23 67 0 32 6 57 16 68 15 16 14 17 -4 12
-11 -2 -31 0 -43 6 l-24 12 23 -17z"/>
<path d="M121 286 c2 -2 15 -9 29 -15 24 -11 24 -11 6 3 -16 13 -49 24 -35 12z"/>
</g>
</svg>
