<svg width="33" height="33" viewBox="0 0 33 33" fill="none" xmlns="http://www.w3.org/2000/svg">
<g id="healthicons:ui-user-profile-outline">
<g id="Group">
<path id="Vector" d="M23.5538 26.9166C23.6741 26.7737 23.7934 26.6299 23.9118 26.4853C24.1846 26.152 24.3332 25.7295 24.3335 25.2967C24.3335 25.2963 24.3335 25.2958 24.3335 25.2953L23.5538 26.9166ZM23.5538 26.9166H23.9874C24.0475 26.8441 24.1082 26.7707 24.1695 26.6963C24.4915 26.3009 24.6672 25.8064 24.6668 25.2964V25.296C24.6668 24.1899 23.86 23.243 22.7617 23.0913L22.7616 23.0913C18.1248 22.4495 14.9033 22.3891 10.2525 23.0687L10.2524 23.0687C9.14066 23.231 8.3335 24.1948 8.3335 25.314C8.3335 25.8099 8.49542 26.2985 8.7988 26.692L8.40392 26.9965L8.7988 26.692C8.8574 26.768 8.9155 26.8431 8.97323 26.9173H9.39702C9.28467 26.7752 9.17331 26.6322 9.06295 26.4885L9.06187 26.4871C8.80448 26.1495 8.66562 25.7364 8.66683 25.3119L9.16683 25.3133H8.66683C8.66683 24.3539 9.35827 23.5354 10.3006 23.3979L23.5538 26.9166Z" fill="#4B4B4B" stroke="#4B4B4B"/>
<path id="Vector_2" d="M16.5001 17.9163C17.091 17.9163 17.6762 17.7999 18.2222 17.5738C18.7681 17.3477 19.2642 17.0162 19.6821 16.5983C20.0999 16.1805 20.4314 15.6844 20.6575 15.1384C20.8837 14.5925 21.0001 14.0073 21.0001 13.4163C21.0001 12.8254 20.8837 12.2402 20.6575 11.6943C20.4314 11.1483 20.0999 10.6522 19.6821 10.2344C19.2642 9.8165 18.7681 9.48503 18.2222 9.25888C17.6762 9.03274 17.091 8.91634 16.5001 8.91634C15.3066 8.91634 14.162 9.39045 13.3181 10.2344C12.4742 11.0783 12.0001 12.2229 12.0001 13.4163C12.0001 14.6098 12.4742 15.7544 13.3181 16.5983C14.162 17.4422 15.3066 17.9163 16.5001 17.9163ZM19.9178 16.834C19.0113 17.7404 17.782 18.2497 16.5001 18.2497C15.2182 18.2497 13.9888 17.7404 13.0824 16.834C12.176 15.9276 11.6667 14.6982 11.6667 13.4163C11.6667 12.1345 12.176 10.9051 13.0824 9.99866C13.9888 9.09223 15.2182 8.58301 16.5001 8.58301C17.782 8.58301 19.0113 9.09223 19.9178 9.99866C20.8242 10.9051 21.3334 12.1345 21.3334 13.4163C21.3334 14.6982 20.8242 15.9276 19.9178 16.834Z" fill="#4B4B4B" stroke="#4B4B4B"/>
<path id="Vector_3" d="M16.5001 29.2498C23.4036 29.2498 29.0001 23.6533 29.0001 16.7498C29.0001 9.84636 23.4036 4.24984 16.5001 4.24984C9.59661 4.24984 4.00008 9.84636 4.00008 16.7498C4.00008 23.6533 9.59661 29.2498 16.5001 29.2498ZM29.3334 16.7498C29.3334 23.8377 23.5879 29.5832 16.5001 29.5832C9.41222 29.5832 3.66675 23.8377 3.66675 16.7498C3.66675 9.66198 9.41222 3.9165 16.5001 3.9165C23.5879 3.9165 29.3334 9.66198 29.3334 16.7498Z" fill="#4B4B4B" stroke="#4B4B4B"/>
</g>
</g>
</svg>
